<svg version="1.1" id="Layer_1" xmlns="http://www.w3.org/2000/svg" xmlns:xlink="http://www.w3.org/1999/xlink"
    viewBox="0 0 64 64" xml:space="preserve">
    <g>
        <path fill="#4A90E2"
            d="M54.9,28.8l-2.4-4.7c-0.5-1.1-1.6-1.8-2.8-1.8H14.3c-1.2,0-2.3,0.7-2.8,1.8L9,28.8
        c-1.8,0.3-3.1,1.8-3.1,3.6v11.1c0,1.1,0.4,2.2,1.2,3.1c0.7,0.9,1.7,1.4,2.8,1.4h1.4c0.5,2.8,2.9,4.9,5.8,4.9s5.3-2.1,5.8-4.9h19.2
        c0.5,2.8,2.9,4.9,5.8,4.9s5.3-2.1,5.8-4.9h1.4c1.1,0,2.1-0.5,2.8-1.4c0.7-0.9,1.2-2,1.2-3.1V32.4C58,30.6,56.7,29.1,54.9,28.8z" />
        <circle fill="#F5A623" cx="17" cy="40.8" r="3" />
        <circle fill="#F5A623" cx="47" cy="40.8" r="3" />
        <rect x="14.3" y="26.6" fill="#BD10E0" width="35.4" height="3.2" />
        <path fill="#7ED321"
            d="M55.4,43.6c-0.2,0.2-0.5,0.4-0.8,0.4h-0.7c-0.6-2.3-2.7-4-5.2-4s-4.6,1.7-5.2,4H20.5
        c-0.6-2.3-2.7-4-5.2-4s-4.6,1.7-5.2,4H9.3c-0.3,0-0.6-0.1-0.8-0.4c-0.2-0.2-0.4-0.5-0.4-0.8V32.4c0-0.5,0.2-0.9,0.5-1.3
        c0.3-0.3,0.7-0.5,1.2-0.5h43.6c0.5,0,0.9,0.2,1.2,0.5c0.3,0.3,0.5,0.8,0.5,1.3v10.4C55.8,43.1,55.6,43.4,55.4,43.6z" />
    </g>
</svg>